<svg width="24" height="24" viewBox="0 0 24 24" fill="none" xmlns="http://www.w3.org/2000/svg">
<path d="M10.5 17C10.3684 17.0008 10.2379 16.9755 10.1161 16.9258C9.99426 16.876 9.88344 16.8027 9.79 16.71C9.69627 16.617 9.62188 16.5064 9.57111 16.3846C9.52034 16.2627 9.4942 16.132 9.4942 16C9.4942 15.868 9.52034 15.7373 9.57111 15.6154C9.62188 15.4936 9.69627 15.383 9.79 15.29L13.1 12L9.92 8.69C9.73375 8.50264 9.62921 8.24919 9.62921 7.985C9.62921 7.72081 9.73375 7.46736 9.92 7.28C10.013 7.18627 10.1236 7.11188 10.2454 7.06111C10.3673 7.01034 10.498 6.9842 10.63 6.9842C10.762 6.9842 10.8927 7.01034 11.0146 7.06111C11.1364 7.11188 11.247 7.18627 11.34 7.28L15.2 11.28C15.3832 11.4669 15.4859 11.7182 15.4859 11.98C15.4859 12.2418 15.3832 12.4931 15.2 12.68L11.2 16.68C11.1102 16.7769 11.0022 16.8551 10.882 16.91C10.7619 16.965 10.632 16.9955 10.5 17Z" fill="#3671E9"/>
</svg>
